<svg width="244" height="246" viewBox="0 0 244 246" fill="none" xmlns="http://www.w3.org/2000/svg">
<path opacity="0.1" d="M29.3718 55.1135C51.6927 48.3928 59.9525 54.8183 89.4513 29.6869C153.291 -24.7013 211.181 0.983562 217.21 63.5241C221.098 103.868 269.592 118.406 225.541 164.105C197.046 193.666 200.338 231.266 137.057 215.782C114.083 210.161 100.775 203.411 72.765 208.637C14.8792 219.437 36.1697 166.946 13.5507 131.499C-8.51822 96.9132 -3.8973 65.1307 29.3718 55.1135Z" fill="#087C7C"/>
<g opacity="0.2">
<path d="M55.118 103.923C43.4864 103.923 34.0234 94.4605 34.0234 82.8289C34.0234 71.1973 43.4864 61.7344 55.118 61.7344C66.7495 61.7344 76.2125 71.1973 76.2125 82.8289C76.2125 94.4605 66.7495 103.923 55.118 103.923ZM55.118 63.1685C44.2772 63.1685 35.4575 71.9881 35.4575 82.8289C35.4575 93.6697 44.2772 102.489 55.118 102.489C65.9588 102.489 74.7784 93.6697 74.7784 82.8289C74.7784 71.9881 65.9588 63.1685 55.118 63.1685Z" fill="#087C7C"/>
<path d="M55.1234 103.921C54.9684 103.921 54.8247 103.872 54.7075 103.789C46.9823 99.6318 42.1875 91.6069 42.1875 82.8241C42.1875 74.039 46.9907 66.0114 54.7285 61.8573C54.8416 61.7815 54.9775 61.7373 55.1234 61.7373C55.5195 61.7373 55.8405 62.0535 55.8405 62.4495V62.4592C55.8405 62.724 55.6945 62.9672 55.461 63.0918C48.1581 66.9874 43.6216 74.5483 43.6216 82.8241C43.6216 91.1058 48.1581 98.6705 55.461 102.566C55.6945 102.691 55.8405 102.934 55.8405 103.199C55.8405 103.595 55.5195 103.921 55.1234 103.921Z" fill="#087C7C"/>
<path d="M55.1156 103.919C54.9324 103.919 54.7497 103.85 54.6108 103.711C54.3309 103.431 54.326 102.982 54.6061 102.702C54.6558 102.652 54.7222 102.6 54.7842 102.567C62.0817 98.6596 66.6149 91.0947 66.6149 82.8246C66.6149 74.5508 62.0819 66.9898 54.7849 63.0922C54.7226 63.0589 54.6656 63.0167 54.6157 62.9667C54.3357 62.6867 54.3309 62.2278 54.6108 61.9478C54.8584 61.7001 55.2384 61.6677 55.5168 61.8573C63.2484 66.0137 68.049 74.0419 68.049 82.8246C68.049 91.6173 63.2335 99.6608 55.4799 103.821C55.3677 103.886 55.2415 103.919 55.1156 103.919Z" fill="#087C7C"/>
<path d="M55.113 73.655C49.8926 73.655 44.8787 71.7289 40.995 68.2314C40.7008 67.9664 40.677 67.513 40.942 67.2186C41.207 66.9245 41.6604 66.9006 41.9547 67.1657C45.5747 70.4256 50.2476 72.2209 55.113 72.2209C59.9845 72.2209 64.661 70.4256 68.281 67.1657C68.5752 66.9005 69.0287 66.9246 69.2937 67.2186C69.5586 67.5129 69.535 67.9663 69.2406 68.2314C65.357 71.7289 60.3396 73.655 55.113 73.655Z" fill="#087C7C"/>
<path d="M68.7605 98.6861C68.5892 98.6861 68.4174 98.6251 68.2801 98.5012C64.6645 95.2355 59.9883 93.437 55.113 93.437C50.2438 93.437 45.5711 95.2355 41.9555 98.5012C41.6617 98.7667 41.2081 98.7435 40.9427 98.4497C40.6773 98.1559 40.7004 97.7025 40.9942 97.4369C44.8738 93.9328 49.888 92.0029 55.113 92.0029C60.3442 92.0029 65.3618 93.9328 69.2414 97.4369C69.5352 97.7024 69.5583 98.1558 69.293 98.4497C69.1514 98.6064 68.9563 98.6861 68.7605 98.6861Z" fill="#087C7C"/>
<path d="M75.4955 83.5464H34.7405C34.3444 83.5464 34.0234 83.2253 34.0234 82.8294C34.0234 82.4334 34.3444 82.1123 34.7405 82.1123H75.4955C75.8915 82.1123 76.2125 82.4334 76.2125 82.8294C76.2125 83.2253 75.8915 83.5464 75.4955 83.5464Z" fill="#087C7C"/>
<path d="M55.1174 103.924C54.7214 103.924 54.4004 103.602 54.4004 103.206V62.4514C54.4004 62.0554 54.7214 61.7344 55.1174 61.7344C55.5135 61.7344 55.8345 62.0554 55.8345 62.4514V103.206C55.8345 103.603 55.5135 103.924 55.1174 103.924Z" fill="#087C7C"/>
</g>
<path d="M181.868 102.736L179.734 42.713L129.567 26.4385L79.3898 42.713L77.2672 102.736C76.7176 118.063 84.9129 132.128 98.6527 139.47L129.567 155.967L160.483 139.47C174.211 132.128 182.406 118.063 181.868 102.736Z" fill="white"/>
<path fill-rule="evenodd" clip-rule="evenodd" d="M187.268 35.4473L189.721 104.464C190.34 122.087 180.918 138.259 165.133 146.701L129.586 165.67L94.0387 146.701C78.2405 138.259 68.817 122.087 69.4488 104.464L71.8893 35.4473L129.586 16.7344L187.268 35.4473ZM129.92 50.4785C113.627 50.4785 100.42 63.6861 100.42 79.9785C100.42 96.271 113.627 109.479 129.92 109.479C146.212 109.478 159.42 96.2709 159.42 79.9785C159.42 63.6862 146.212 50.4787 129.92 50.4785ZM133.607 61.541V78.4512L143.589 88.4336L138.375 93.6484L126.232 81.5059V61.541H133.607Z" fill="#087C7C"/>
<path d="M156.695 118.673C155.779 118.673 155.037 117.931 155.037 117.015V106.904C155.037 105.988 155.779 105.246 156.695 105.246C157.611 105.246 158.353 105.988 158.353 106.904V117.015C158.353 117.931 157.61 118.673 156.695 118.673Z" fill="white"/>
<path d="M152.318 116.146C151.745 116.146 151.188 115.849 150.88 115.317C150.423 114.524 150.694 113.51 151.488 113.052L160.244 107.996C161.037 107.538 162.05 107.81 162.509 108.603C162.967 109.396 162.696 110.41 161.902 110.868L153.145 115.924C152.885 116.075 152.599 116.146 152.318 116.146Z" fill="white"/>
<path d="M161.072 116.146C160.791 116.146 160.506 116.075 160.245 115.924L151.488 110.868C150.694 110.41 150.423 109.396 150.88 108.603C151.339 107.81 152.349 107.538 153.145 107.996L161.902 113.052C162.696 113.51 162.967 114.524 162.51 115.317C162.202 115.849 161.645 116.146 161.072 116.146Z" fill="white"/>
<path d="M174.717 118.673C173.802 118.673 173.06 117.931 173.06 117.015V106.904C173.06 105.988 173.802 105.246 174.717 105.246C175.633 105.246 176.375 105.988 176.375 106.904V117.015C176.375 117.931 175.633 118.673 174.717 118.673Z" fill="white"/>
<path d="M170.34 116.146C169.767 116.146 169.21 115.849 168.903 115.317C168.446 114.524 168.717 113.51 169.51 113.052L178.267 107.996C179.057 107.538 180.073 107.81 180.532 108.603C180.989 109.396 180.718 110.41 179.925 110.868L171.168 115.924C170.907 116.075 170.621 116.146 170.34 116.146Z" fill="white"/>
<path d="M179.094 116.146C178.813 116.146 178.528 116.075 178.267 115.924L169.51 110.868C168.717 110.41 168.446 109.396 168.903 108.603C169.361 107.81 170.372 107.538 171.168 107.996L179.925 113.052C180.718 113.51 180.989 114.524 180.532 115.317C180.224 115.849 179.667 116.146 179.094 116.146Z" fill="white"/>
<path d="M192.739 118.673C191.823 118.673 191.081 117.931 191.081 117.015V106.904C191.081 105.988 191.823 105.246 192.739 105.246C193.654 105.246 194.397 105.988 194.397 106.904V117.015C194.397 117.931 193.654 118.673 192.739 118.673Z" fill="white"/>
<path d="M188.362 116.146C187.789 116.146 187.232 115.849 186.924 115.317C186.467 114.524 186.738 113.51 187.531 113.052L196.289 107.996C197.08 107.538 198.094 107.81 198.553 108.603C199.011 109.396 198.74 110.41 197.946 110.868L189.189 115.924C188.929 116.075 188.643 116.146 188.362 116.146Z" fill="white"/>
<path d="M197.116 116.146C196.835 116.146 196.55 116.075 196.289 115.924L187.531 110.868C186.738 110.41 186.467 109.396 186.924 108.603C187.382 107.81 188.392 107.538 189.189 107.996L197.946 113.052C198.74 113.51 199.011 114.524 198.553 115.317C198.246 115.849 197.689 116.146 197.116 116.146Z" fill="white"/>
<path d="M210.761 118.673C209.846 118.673 209.104 117.931 209.104 117.015V106.904C209.104 105.988 209.846 105.246 210.761 105.246C211.677 105.246 212.419 105.988 212.419 106.904V117.015C212.419 117.931 211.677 118.673 210.761 118.673Z" fill="white"/>
<path d="M206.384 116.146C205.811 116.146 205.254 115.849 204.947 115.317C204.489 114.524 204.761 113.51 205.554 113.052L214.311 107.996C215.103 107.538 216.118 107.81 216.576 108.603C217.033 109.396 216.762 110.41 215.969 110.868L207.212 115.924C206.951 116.075 206.665 116.146 206.384 116.146Z" fill="white"/>
<path d="M215.138 116.146C214.857 116.146 214.572 116.075 214.311 115.924L205.554 110.868C204.761 110.41 204.489 109.396 204.947 108.603C205.404 107.81 206.415 107.538 207.212 107.996L215.969 113.052C216.762 113.51 217.033 114.524 216.576 115.317C216.268 115.849 215.711 116.146 215.138 116.146Z" fill="white"/>
<g opacity="0.2">
<path d="M26.2125 118.176C25.2855 118.176 24.5342 117.425 24.5342 116.498V109.568C24.5342 107.366 25.3992 105.304 26.9701 103.76C28.5409 102.217 30.6214 101.384 32.8223 101.428C37.227 101.507 40.8105 105.252 40.8105 109.776V116.482C40.8105 117.409 40.0592 118.16 39.1322 118.16C38.2052 118.16 37.4538 117.409 37.4538 116.482V109.776C37.4538 107.07 35.3493 104.831 32.7626 104.784C31.4606 104.768 30.2452 105.248 29.3224 106.155C28.3993 107.062 27.8909 108.274 27.8909 109.568V116.498C27.8909 117.425 27.1396 118.176 26.2125 118.176Z" fill="#087C7C"/>
<path d="M21.8984 117.628V127.346C21.8984 128.317 22.6854 129.104 23.6561 129.104H41.1071C42.0778 129.104 42.8648 128.317 42.8648 127.346V117.627C42.8648 116.656 42.0778 115.869 41.1071 115.869H23.6573C22.6859 115.869 21.8984 116.657 21.8984 117.628Z" fill="#087C7C"/>
</g>
<path opacity="0.1" d="M72.0645 231.88C88.6794 231.88 102.148 229.965 102.148 227.602C102.148 225.24 88.6794 223.324 72.0645 223.324C55.4495 223.324 41.9805 225.24 41.9805 227.602C41.9805 229.965 55.4495 231.88 72.0645 231.88Z" fill="#087C7C"/>
<path d="M61.1323 157.129C59.8005 162.168 57.2463 173.331 57.859 188.416C57.8982 189.383 60.1922 189.236 60.3057 190.021C60.3057 190.021 62.3997 190.631 63.3768 190.251C64.3559 189.872 63.9143 194.3 65.2502 189.568C67.1614 182.797 71.8928 168.916 73.9868 160.351L61.1323 157.129Z" fill="#363636"/>
<path d="M60.0162 179.988C59.1531 182.684 57.9624 185.204 56.3927 192.46C54.823 199.717 55.6466 221.254 55.6466 221.254L59.9611 221.858C59.9611 221.858 63.5978 197.997 66.4307 183.141C67.098 179.641 60.8045 177.526 60.0162 179.988Z" fill="#363636"/>
<path d="M55.5685 220.964C55.6158 220.773 55.4654 221.048 56.8738 221.105C57.8456 221.145 60.0137 221.157 60.0137 221.157C60.0137 221.157 60.8328 221.651 61.5599 222.173C62.2871 222.695 66.0852 224.535 67.1481 225.297C67.7768 225.747 67.4251 227.587 66.0922 227.386C64.9115 227.208 60.1264 226.571 58.2879 226.294C56.0248 225.954 54.8044 225.748 54.8135 225.071C54.8207 224.548 55.4262 221.539 55.5685 220.964Z" fill="#087C7C"/>
<path d="M74.116 102.685C76.2453 100.515 76.9552 99.2427 76.704 94.651C76.3772 88.6795 66.8535 88.0894 65.4687 91.0416C64.0837 93.9938 67.5345 109.389 74.116 102.685Z" fill="#363636"/>
<path d="M68.5138 106.683V112.988C66.9933 114.765 64.0537 115.526 61.5293 114.787L63.2477 102.315C63.2477 102.315 67.9777 104.081 68.5138 106.683Z" fill="#FFE7C0"/>
<path d="M76.3838 96.7109C76.3838 96.7109 75.7426 102.165 77.9831 103.888C79.6116 105.14 79.2627 107.509 79.2627 107.509C79.2627 107.509 78.6392 108.195 75.7464 108.701C72.8535 109.206 66.5595 106.464 66.5919 106.227C66.6244 105.99 66.1182 94.6327 76.3838 96.7109Z" fill="#363636"/>
<path d="M68.0176 109.46C68.0176 109.46 71.385 110.712 72.9887 110.072C74.5923 109.433 75.3895 103.322 75.5402 101.719C75.7455 99.538 74.9212 96.7007 74.0362 95.729C71.6601 93.12 58.5725 97.6609 68.0176 109.46Z" fill="#FFE7C0"/>
<path d="M61.8691 132.764C62.0128 133.643 62.14 134.479 62.2406 135.227C62.7445 138.979 62.4477 143.219 62.4433 144.807C62.4389 146.394 75.2344 148.189 75.2414 145.639C75.2484 143.088 75.36 135.814 76.2124 132.803L61.8691 132.764Z" fill="white"/>
<path d="M96.0859 124.174C94.652 124.644 94.0893 125.794 93.0908 125.961C88.4865 126.731 80.2114 127.975 77.4203 128.799C74.6291 129.624 73.804 133.619 77.669 133.237C81.534 132.855 92.1662 127.963 93.8591 128.197C94.796 128.326 95.8876 128.002 97.2656 127.572C98.3724 127.227 101.065 122.545 96.0859 124.174Z" fill="#F7D9BC"/>
<path d="M62.1004 134.237C67.4871 133.88 72.6184 133.629 75.9369 134.14C76.2605 132.515 76.693 131.216 77.267 130.491C79.7272 127.382 80.022 123.388 77.743 120.558C75.4664 117.728 69.1709 113.575 68.4923 112.755C66.4148 113.07 63.8365 114.197 61.7122 113.325C60.7008 115.065 59.9498 117.54 60.1593 120.672C60.2973 122.736 61.15 129.061 62.1004 134.237Z" fill="white"/>
<path d="M62.607 167.677L75.2426 164.874C75.8743 158.399 75.89 155.119 75.671 152.469C75.5403 150.893 75.3455 148.381 75.2417 145.638C72.5106 145.759 66.0981 145.595 62.4436 144.807C62.0422 146.91 61.4866 149.422 60.305 151.955C57.3604 158.269 58.2302 165.042 62.607 167.677Z" fill="#363636"/>
<path d="M74.1913 191.292C74.1913 191.292 76.3587 191.041 77.1125 190.311C77.8662 189.581 78.5995 189.321 78.5689 184.403C78.5353 179.001 75.6637 160.707 74.3807 153.199C73.0978 145.69 61.1364 159.718 61.1364 159.718C61.1364 159.718 60.611 172.033 70.8341 189.921C71.3144 190.762 73.7824 190.612 74.1913 191.292Z" fill="#363636"/>
<path d="M78.9571 135.028C76.5297 131.083 71.1473 122.973 68.7069 118.262L63.7451 122.508C65.9634 126.3 70.1387 133.397 76.0307 138.81C79.315 141.829 81.3034 138.842 78.9571 135.028Z" fill="#FFE7C0"/>
<path d="M99.8236 121.417L102.228 122.215C102.561 122.325 102.723 122.702 102.572 123.019L98.4789 131.646C98.3079 132.006 97.9988 132.137 97.6963 132.034C97.6003 132.002 96.8505 131.319 95.7572 130.791C95.3607 130.6 95.235 129.998 95.4794 129.479L99.1109 121.724C99.2364 121.456 99.5426 121.324 99.8236 121.417Z" fill="#363636"/>
<path d="M97.1742 130.821L95.7323 128.887C95.7323 128.887 95.0292 128.576 94.8882 129.432C94.795 129.999 95.0041 132.856 95.0041 132.856C95.0041 132.856 97.1214 131.824 97.1742 130.821Z" fill="#FFE7C0"/>
<path d="M99.9199 128.599C98.4041 129.259 96.8844 130.337 96.0784 130.543C91.1211 131.805 81.8176 134.046 78.8434 135.198C75.8692 136.349 75.3273 140.787 79.514 140.023C83.7007 139.258 94.8704 133.017 96.7425 133.063C97.4438 133.08 98.4948 133.019 99.7029 132.491C101.152 131.857 101.143 128.066 99.9199 128.599Z" fill="#FFE7C0"/>
<path d="M72.2384 109.652C72.3301 111.008 72.3794 111.199 72.1443 112.811C70.704 112.397 67.5794 112.046 66.0768 112.056C63.0168 112.078 61.7379 111.83 60.6154 111.144C58.7384 109.995 57.6792 107.888 57.7572 105.688C57.9393 100.55 54.9332 95.7147 60.2082 91.6309C63.3203 89.2208 69.4986 86.7447 72.2912 89.9699C75.0838 93.1955 75.8056 96.5469 72.4454 99.4941C68.9507 102.559 71.9227 104.92 72.2384 109.652Z" fill="#363636"/>
<path d="M71.6807 182.8C71.388 185.615 70.7385 188.326 70.6879 195.75C70.6374 203.174 75.6702 223.929 75.6702 223.929L80.2003 223.794C80.2003 223.794 78.874 199.694 78.6047 184.572C78.5414 181.01 71.9482 180.229 71.6807 182.8Z" fill="#363636"/>
<path d="M75.5726 223.739C75.5912 223.543 75.483 223.837 76.8845 223.687C77.8515 223.582 79.9978 223.275 79.9978 223.275C79.9978 223.275 80.8807 223.643 81.6767 224.052C82.4729 224.462 86.023 225.814 87.1865 226.412C87.8748 226.765 87.7977 228.636 86.4499 228.634C85.2559 228.632 80.9066 228.614 79.0474 228.611C76.7589 228.607 75.5215 228.584 75.4309 227.913C75.3608 227.394 75.5165 224.329 75.5726 223.739Z" fill="#087C7C"/>
<path d="M78.8896 223.718C78.8896 223.718 79.3258 222.01 79.884 221.78C80.4422 221.549 81.5693 224.184 82.5058 225.018C83.4422 225.852 80.1055 226.324 78.8896 223.718Z" fill="#087C7C"/>
<path d="M72.1743 121.707C72.0585 121.236 71.8978 120.762 71.688 120.294C70.2723 117.135 67.2091 115.433 64.8458 116.492C62.4827 117.551 61.767 120.927 64.7035 125.716C68.4451 122.519 72.1743 121.707 72.1743 121.707Z" fill="white"/>
<path opacity="0.1" d="M179.705 245.68C196.32 245.68 209.789 243.765 209.789 241.402C209.789 239.039 196.32 237.124 179.705 237.124C163.09 237.124 149.621 239.039 149.621 241.402C149.621 243.765 163.09 245.68 179.705 245.68Z" fill="#087C7C"/>
<path d="M178.78 176.828C174.759 176.619 169.239 174.749 168.997 174.666C168.979 174.731 168.969 174.782 168.969 174.816L178.13 178.138V178.613L178.784 178.376L179.437 178.613V178.138L188.598 174.816C188.598 174.782 188.588 174.731 188.571 174.666C188.319 174.752 182.806 176.62 178.786 176.828H178.78Z" fill="#FFE6D1"/>
<path d="M163.132 174.851C162.3 173.776 160.869 171.912 159.189 169.729C157.849 169.95 156.603 170.63 155.69 171.678C158.197 174.013 160.381 175.998 161.342 176.829C162.184 178.003 163.377 178.91 164.49 179.545C164.993 179.832 165.479 180.063 165.91 180.239C166.245 180.377 166.547 180.481 166.795 180.55C168.306 180.972 169.55 175.217 167.608 175.539C167.608 175.539 167.583 175.543 167.57 175.545C167.111 175.616 166.582 175.601 166.042 175.536C164.96 175.408 163.833 175.081 163.132 174.851Z" fill="#FFE6D1"/>
<path d="M168.774 238.597H171.944C171.944 220.475 176.571 194.837 178.291 190.216C178.337 190.092 178.445 190.03 178.555 190.018H178.557C178.666 190.031 178.764 190.097 178.818 190.216C179.553 191.835 184.179 200.947 184.571 207.401C185.173 217.298 184.086 227.755 184.086 238.597H187.321C191 229.385 193.822 215.185 194.043 203.917C194.165 197.703 193.431 183.966 189.073 175.401H167.702C166.629 177.599 165.217 180.967 164.841 184.106C163.851 192.376 165.352 221.966 168.774 238.597Z" fill="#363636"/>
<path d="M172.995 241.996L172.996 241.98C172.996 240.55 172.747 239.679 171.944 238.597H168.774C168.369 239.596 168.305 241.106 168.307 241.996H172.995Z" fill="#087C7C"/>
<path d="M190.774 241.996C191.157 240.297 190.43 240.066 187.257 238.597H184.086C183.865 239.598 183.884 241.106 183.886 241.996H190.774Z" fill="#087C7C"/>
<path d="M191.392 153.142L191.672 139.281C190.236 138.144 188.615 137.429 186.722 137.336C184.8 137.241 183.295 136.949 183.295 136.949C183.295 136.949 182.421 139.259 178.792 139.259C175.162 139.259 174.131 137.027 174.131 137.027C163.435 137.028 150.713 151.171 150.7 163.506C150.694 169.577 159.678 177.18 161.36 178.022C162.196 178.439 164.825 175.39 164.119 174.666C161.764 172.251 155.966 165.927 158.919 161.351C161.873 156.776 166.038 157.343 166.096 157.749C166.154 158.154 169.064 162.107 167.326 169.578C165.589 177.049 165.388 177.494 170.819 178.347C175.21 179.037 180.213 177.831 186.185 177.913C191.962 177.992 191.047 176.051 189.889 170.838C189.078 167.188 190.723 156.005 191.392 153.142Z" fill="white"/>
<path d="M205.283 128.905C205.283 128.905 204.978 127.223 205.283 124.929C205.589 122.635 207.195 119.5 207.654 118.582C208.113 117.665 209.26 118.123 208.418 120.341C207.577 122.558 207.489 122.954 208.718 123.521C209.948 124.088 211.921 125.289 210.33 127.299C208.739 129.309 208.341 130.893 208.036 131.887C207.73 132.881 203.754 133.799 205.283 128.905Z" fill="#FFE6D1"/>
<path d="M186.06 138.133C186.06 138.133 199.349 142.901 204.103 129.279C204.808 127.257 208.667 128.109 208.912 129.78C210.37 139.715 198.799 151.939 186.711 154.673C174.624 157.407 186.06 138.133 186.06 138.133Z" fill="white"/>
<path d="M193.766 152.136C196.464 143.434 190.616 139.569 188.493 135.009C187.704 133.315 186.491 129.931 186.735 127.411C187.163 122.999 185.09 119.304 180.512 117.698C175.314 115.874 168.493 118.29 167.849 124.365C164.958 127.988 163.911 131.144 166.148 135.327C168.175 139.118 162.108 142.633 166.458 149.824C168.726 153.574 173.337 151.243 177.899 156.202C183.929 162.755 192.229 157.094 193.766 152.136Z" fill="#363636"/>
</svg>
